<svg width="17" height="17" viewBox="0 0 17 17" fill="none" xmlns="http://www.w3.org/2000/svg">
<path d="M8.5 16C12.6421 16 16 12.6421 16 8.5C16 4.35786 12.6421 1 8.5 1C4.35786 1 1 4.35786 1 8.5C1 9.53418 1.2093 10.5195 1.58786 11.4158C1.79708 11.9111 1.9017 12.1588 1.91465 12.346C1.9276 12.5332 1.8725 12.7391 1.76231 13.1509L1 16L3.84908 15.2377C4.26091 15.1275 4.46683 15.0724 4.65401 15.0854C4.84121 15.0983 5.08889 15.2029 5.58426 15.4121C6.48059 15.7907 7.46582 16 8.5 16Z" stroke="white" stroke-width="0.7" stroke-linejoin="round"/>
<path d="M5.94111 8.78298L6.59432 7.9717C6.86962 7.62977 7.20993 7.31147 7.23663 6.85619C7.2433 6.7412 7.16245 6.22493 7.0006 5.19239C6.93701 4.78661 6.55815 4.75 6.22999 4.75C5.80236 4.75 5.58854 4.75 5.37621 4.84698C5.10786 4.96956 4.83234 5.31423 4.77188 5.603C4.72404 5.83147 4.75959 5.9889 4.83069 6.30377C5.13267 7.6411 5.84111 8.96185 6.93961 10.0604C8.03815 11.1589 9.3589 11.8674 10.6962 12.1693C11.0111 12.2404 11.1685 12.276 11.397 12.2281C11.6858 12.1677 12.0304 11.8922 12.153 11.6238C12.25 11.4114 12.25 11.1977 12.25 10.77C12.25 10.4418 12.2134 10.063 11.8076 9.9994C10.7751 9.83755 10.2588 9.7567 10.1438 9.76337C9.68852 9.79007 9.37023 10.1304 9.0283 10.4057L8.21702 11.0589" stroke="white" stroke-width="0.7"/>
</svg>
