<svg width="28" height="26" viewBox="0 0 28 26" fill="none" xmlns="http://www.w3.org/2000/svg">
<g filter="url(#filter0_d_207_1786)">
<path fill-rule="evenodd" clip-rule="evenodd" d="M15 13.2775H16.75C20.2018 13.2775 23 10.5975 23 7.29154C23 3.98554 20.2018 1.30554 16.75 1.30554H11.25C7.7982 1.30554 5 3.98554 5 7.29154C5 11.0816 7.60835 13.399 10.462 14.8225C11.8793 15.5295 13.3068 15.9864 14.3864 16.2664C14.6075 16.3237 14.813 16.3735 15 16.4162V13.2775ZM16 17.5875C16 17.5875 15.622 17.5346 15 17.3996C12.1181 16.7737 4 14.3814 4 7.29154C4 3.45662 7.24595 0.347778 11.25 0.347778H16.75C20.754 0.347778 24 3.45662 24 7.29154C24 11.1265 20.754 14.2353 16.75 14.2353H16V17.5875Z" fill="white"/>
<path fill-rule="evenodd" clip-rule="evenodd" d="M14.7033 3.24499C14.0424 3.22483 13.3503 3.34306 12.7738 3.6109C12.197 3.87888 11.6885 4.32242 11.5156 4.96757C11.4469 5.22372 11.6081 5.48471 11.8756 5.55046C12.143 5.61621 12.4155 5.46187 12.4842 5.20567C12.5601 4.92236 12.7972 4.66453 13.2103 4.4726C13.618 4.2832 14.1447 4.18623 14.6715 4.20227C15.2011 4.21841 15.6808 4.34694 16.0119 4.55798C16.1537 4.64835 16.2847 4.76179 16.376 4.9136C16.4706 5.07067 16.4999 5.23062 16.4999 5.37601C16.4999 5.61061 16.4289 5.77946 16.3237 5.91207C16.2131 6.05142 16.0472 6.17171 15.832 6.27146C15.3935 6.47475 14.8447 6.55003 14.4665 6.57426C14.2039 6.59112 13.9999 6.8 13.9999 7.05209V7.77041C13.9999 8.03489 14.2237 8.24929 14.4999 8.24929C14.7556 8.24929 14.967 8.06506 14.9964 7.82787C15.0214 7.62516 15.1779 7.45995 15.3861 7.41632C15.6788 7.35503 15.9845 7.26485 16.2677 7.13354C16.9005 6.84023 17.4999 6.2967 17.4999 5.37601C17.4999 4.65113 17.1108 4.10798 16.566 3.76065C16.038 3.42409 15.3616 3.26505 14.7033 3.24499ZM12.3374 2.74916C13.0827 2.40288 13.9401 2.26348 14.7351 2.28771C15.522 2.31165 16.395 2.50119 17.12 2.96331C17.8912 3.45493 18.4999 4.27487 18.4999 5.37601C18.4999 6.79478 17.5383 7.60859 16.7034 7.99567C16.4367 8.11927 16.1635 8.21141 15.9025 8.28046C15.6876 8.82222 15.1409 9.20705 14.4999 9.20705C13.6714 9.20705 12.9999 8.56382 12.9999 7.77041V7.05209C12.9999 6.29589 13.6119 5.66913 14.3997 5.61866C14.736 5.59711 15.1317 5.53207 15.3964 5.40938C15.4304 5.39363 15.4565 5.37945 15.4764 5.36758C15.4709 5.3638 15.4648 5.35972 15.4579 5.35532C15.3232 5.26946 15.0398 5.17172 14.6397 5.15955C14.2473 5.14758 13.8859 5.22324 13.6467 5.33434C13.5132 5.39636 13.4627 5.44516 13.4473 5.46364C13.2327 6.22027 12.4224 6.67372 11.6269 6.47815C10.8245 6.2809 10.341 5.49793 10.547 4.72942C10.8167 3.7232 11.5959 3.09366 12.3374 2.74916ZM14.4999 10.4042C14.2237 10.4042 13.9999 10.6186 13.9999 10.8831C13.9999 11.1476 14.2237 11.362 14.4999 11.362C14.776 11.362 14.9999 11.1476 14.9999 10.8831C14.9999 10.6186 14.776 10.4042 14.4999 10.4042ZM12.9999 10.8831C12.9999 10.0897 13.6714 9.44649 14.4999 9.44649C15.3283 9.44649 15.9999 10.0897 15.9999 10.8831C15.9999 11.6766 15.3283 12.3198 14.4999 12.3198C13.6714 12.3198 12.9999 11.6766 12.9999 10.8831Z" fill="white"/>
</g>
<defs>
<filter id="filter0_d_207_1786" x="0" y="0.347778" width="28" height="25.2397" filterUnits="userSpaceOnUse" color-interpolation-filters="sRGB">
<feFlood flood-opacity="0" result="BackgroundImageFix"/>
<feColorMatrix in="SourceAlpha" type="matrix" values="0 0 0 0 0 0 0 0 0 0 0 0 0 0 0 0 0 0 127 0" result="hardAlpha"/>
<feOffset dy="4"/>
<feGaussianBlur stdDeviation="2"/>
<feComposite in2="hardAlpha" operator="out"/>
<feColorMatrix type="matrix" values="0 0 0 0 0 0 0 0 0 0 0 0 0 0 0 0 0 0 0.25 0"/>
<feBlend mode="normal" in2="BackgroundImageFix" result="effect1_dropShadow_207_1786"/>
<feBlend mode="normal" in="SourceGraphic" in2="effect1_dropShadow_207_1786" result="shape"/>
</filter>
</defs>
</svg>
