<svg width="15" height="18" viewBox="0 0 15 18" fill="none" xmlns="http://www.w3.org/2000/svg">
<path d="M10.8963 8.20547L5.27007 7.09453C4.61889 6.96797 4.16566 6.55664 4.16566 6.09961C4.16566 5.52656 4.85331 5.0625 5.70245 5.0625H9.15632C9.79187 5.0625 10.417 5.19258 10.938 5.43164C11.2557 5.57578 11.6829 5.54062 11.9538 5.36133L13.7667 4.16602C14.1366 3.92344 14.0845 3.51914 13.6729 3.30469C12.3966 2.62969 10.8025 2.25352 9.16674 2.25V0.5625C9.16674 0.253125 8.79166 0 8.33323 0H6.6662C6.20777 0 5.83269 0.253125 5.83269 0.5625V2.25H5.70245C2.38403 2.25 -0.283208 4.17305 0.0241494 6.45469C0.242946 8.07539 2.07667 9.39375 4.38967 9.85078L9.72936 10.9055C10.3805 11.0355 10.8338 11.4434 10.8338 11.9004C10.8338 12.4734 10.1461 12.9375 9.29697 12.9375H5.84311C5.20755 12.9375 4.58242 12.8074 4.06147 12.5684C3.7437 12.4242 3.31652 12.4594 3.04563 12.6387L1.23274 13.834C0.862871 14.0766 0.914966 14.4809 1.32651 14.6953C2.60283 15.3703 4.19692 15.7465 5.83269 15.75V17.4375C5.83269 17.7469 6.20777 18 6.6662 18H8.33323C8.79166 18 9.16674 17.7469 9.16674 17.4375V15.743C11.5943 15.7113 13.8709 14.7375 14.6731 13.1871C15.7932 11.0215 13.9125 8.79961 10.8963 8.20547Z" fill="black"/>
</svg>
