<svg width="41" height="42" viewBox="0 0 41 42" fill="none" xmlns="http://www.w3.org/2000/svg">
<g filter="url(#filter0_d_105_3194)">
<path d="M35 29.0368V17.441C35 15.811 34.343 14.253 33.1836 13.1335L22.4919 2.80951C21.3741 1.73016 19.6259 1.73016 18.5081 2.80951L7.81634 13.1335C6.65697 14.253 6 15.811 6 17.441V29.0368C6 30.6734 7.29837 32 8.9 32H32.1C33.7017 32 35 30.6734 35 29.0368Z" fill="#243141"/>
<path d="M35 29.0368V17.441C35 15.811 34.343 14.253 33.1836 13.1335L22.4919 2.80951C21.3741 1.73016 19.6259 1.73016 18.5081 2.80951L7.81634 13.1335C6.65697 14.253 6 15.811 6 17.441V29.0368C6 30.6734 7.29837 32 8.9 32H32.1C33.7017 32 35 30.6734 35 29.0368Z" stroke="#243141" stroke-width="3" stroke-linecap="round" stroke-linejoin="round"/>
</g>
<defs>
<filter id="filter0_d_105_3194" x="0.5" y="0.5" width="40" height="41" filterUnits="userSpaceOnUse" color-interpolation-filters="sRGB">
<feFlood flood-opacity="0" result="BackgroundImageFix"/>
<feColorMatrix in="SourceAlpha" type="matrix" values="0 0 0 0 0 0 0 0 0 0 0 0 0 0 0 0 0 0 127 0" result="hardAlpha"/>
<feOffset dy="4"/>
<feGaussianBlur stdDeviation="2"/>
<feComposite in2="hardAlpha" operator="out"/>
<feColorMatrix type="matrix" values="0 0 0 0 0 0 0 0 0 0 0 0 0 0 0 0 0 0 0.25 0"/>
<feBlend mode="normal" in2="BackgroundImageFix" result="effect1_dropShadow_105_3194"/>
<feBlend mode="normal" in="SourceGraphic" in2="effect1_dropShadow_105_3194" result="shape"/>
</filter>
</defs>
</svg>
