<svg width="33" height="37" viewBox="0 0 33 37" fill="none" xmlns="http://www.w3.org/2000/svg">
<path d="M9.25 5.625H5.625C4.66359 5.625 3.74156 6.00692 3.06174 6.68674C2.38192 7.36656 2 8.28859 2 9.25V31C2 31.9614 2.38192 32.8834 3.06174 33.5633C3.74156 34.2431 4.66359 34.625 5.625 34.625H27.375C28.3364 34.625 29.2584 34.2431 29.9383 33.5633C30.6181 32.8834 31 31.9614 31 31V9.25C31 8.28859 30.6181 7.36656 29.9383 6.68674C29.2584 6.00692 28.3364 5.625 27.375 5.625H23.75M9.25 5.625C9.25 4.66359 9.63192 3.74156 10.3117 3.06174C10.9916 2.38192 11.9136 2 12.875 2H20.125C21.0864 2 22.0084 2.38192 22.6883 3.06174C23.3681 3.74156 23.75 4.66359 23.75 5.625M9.25 5.625C9.25 6.58641 9.63192 7.50844 10.3117 8.18826C10.9916 8.86808 11.9136 9.25 12.875 9.25H20.125C21.0864 9.25 22.0084 8.86808 22.6883 8.18826C23.3681 7.50844 23.75 6.58641 23.75 5.625M9.25 16.5H23.75M9.25 23.75H16.5" stroke="#243141" stroke-width="3" stroke-linecap="round" stroke-linejoin="round"/>
</svg>
