<svg width="17" height="20" viewBox="0 0 17 20" fill="none" xmlns="http://www.w3.org/2000/svg">
<path d="M1.83325 9.1001V12.7001C1.83325 15.6699 1.83325 17.1548 2.68753 18.0775C3.54179 19.0001 4.91673 19.0001 7.66659 19.0001H9.33325C12.0831 19.0001 13.458 19.0001 14.3123 18.0775C15.1666 17.1548 15.1666 15.6699 15.1666 12.7001V9.1001" stroke="#2A353D" stroke-width="1.5" stroke-linecap="round" stroke-linejoin="round"/>
<path d="M1 7.3C1 6.62708 1 6.29061 1.16747 6.04C1.27717 5.87582 1.43497 5.73948 1.625 5.64469C1.91507 5.5 2.30448 5.5 3.08333 5.5H13.9167C14.6955 5.5 15.0849 5.5 15.375 5.64469C15.565 5.73948 15.7228 5.87582 15.8325 6.04C16 6.29061 16 6.62708 16 7.3C16 7.97292 16 8.30935 15.8325 8.56C15.7228 8.72416 15.565 8.86051 15.375 8.95528C15.0849 9.1 14.6955 9.1 13.9167 9.1H3.08333C2.30448 9.1 1.91507 9.1 1.625 8.95528C1.43497 8.86051 1.27717 8.72416 1.16747 8.56C1 8.30935 1 7.97292 1 7.3Z" stroke="#2A353D" stroke-width="1.5" stroke-linejoin="round"/>
<path d="M3.5 2.60714C3.5 1.71954 4.16624 1 4.98809 1H5.28572C7.06092 1 8.5 2.55421 8.5 4.47143V5.5H6.17857C4.69923 5.5 3.5 4.20482 3.5 2.60714Z" stroke="#2A353D" stroke-width="1.5" stroke-linejoin="round"/>
<path d="M13.5 2.60714C13.5 1.71954 12.8338 1 12.0119 1H11.7142C9.93908 1 8.5 2.55421 8.5 4.47143V5.5H10.8214C12.3007 5.5 13.5 4.20482 13.5 2.60714Z" stroke="#2A353D" stroke-width="1.5" stroke-linejoin="round"/>
<path d="M8.5 9.1001V19.0001" stroke="#2A353D" stroke-width="1.5" stroke-linecap="round" stroke-linejoin="round"/>
</svg>
