<svg width="26" height="27" viewBox="0 0 26 27" fill="none" xmlns="http://www.w3.org/2000/svg">
<g filter="url(#filter0_d_207_1791)">
<path d="M18.0233 8.51536C17.68 8.51536 17.3954 8.24273 17.3954 7.91398V6.31029C17.3954 3.78447 16.6503 2.1006 13 2.1006C9.34981 2.1006 8.60469 3.78447 8.60469 6.31029V7.91398C8.60469 8.24273 8.32004 8.51536 7.97678 8.51536C7.63353 8.51536 7.34888 8.24273 7.34888 7.91398V6.31029C7.34888 3.98493 7.93492 0.897827 13 0.897827C18.0652 0.897827 18.6512 3.98493 18.6512 6.31029V7.91398C18.6512 8.24273 18.3666 8.51536 18.0233 8.51536Z" fill="white"/>
<path d="M13 15.3311C11.5014 15.3311 10.2791 14.1604 10.2791 12.7251C10.2791 11.2898 11.5014 10.1191 13 10.1191C14.4986 10.1191 15.7209 11.2898 15.7209 12.7251C15.7209 14.1604 14.4986 15.3311 13 15.3311ZM13 11.3218C12.1963 11.3218 11.5349 11.9553 11.5349 12.7251C11.5349 13.4949 12.1963 14.1283 13 14.1283C13.8037 14.1283 14.4651 13.4949 14.4651 12.7251C14.4651 11.9553 13.8037 11.3218 13 11.3218Z" fill="white"/>
<path d="M17.186 18.1375H8.81395C5.12186 18.1375 4 17.063 4 13.5269V11.9232C4 8.38703 5.12186 7.31256 8.81395 7.31256H17.186C20.8781 7.31256 22 8.38703 22 11.9232V13.5269C22 17.063 20.8781 18.1375 17.186 18.1375ZM8.81395 8.51533C5.81674 8.51533 5.25581 9.06059 5.25581 11.9232V13.5269C5.25581 16.3895 5.81674 16.9347 8.81395 16.9347H17.186C20.1833 16.9347 20.7442 16.3895 20.7442 13.5269V11.9232C20.7442 9.06059 20.1833 8.51533 17.186 8.51533H8.81395Z" fill="white"/>
</g>
<defs>
<filter id="filter0_d_207_1791" x="0" y="0.897827" width="26" height="25.2397" filterUnits="userSpaceOnUse" color-interpolation-filters="sRGB">
<feFlood flood-opacity="0" result="BackgroundImageFix"/>
<feColorMatrix in="SourceAlpha" type="matrix" values="0 0 0 0 0 0 0 0 0 0 0 0 0 0 0 0 0 0 127 0" result="hardAlpha"/>
<feOffset dy="4"/>
<feGaussianBlur stdDeviation="2"/>
<feComposite in2="hardAlpha" operator="out"/>
<feColorMatrix type="matrix" values="0 0 0 0 0 0 0 0 0 0 0 0 0 0 0 0 0 0 0.25 0"/>
<feBlend mode="normal" in2="BackgroundImageFix" result="effect1_dropShadow_207_1791"/>
<feBlend mode="normal" in="SourceGraphic" in2="effect1_dropShadow_207_1791" result="shape"/>
</filter>
</defs>
</svg>
