<svg width="42" height="45" viewBox="0 0 42 45" fill="none" xmlns="http://www.w3.org/2000/svg">
<g filter="url(#filter0_d_246_992)">
<path d="M31 12C31 9.34783 29.9464 6.8043 28.0711 4.92893C26.1957 3.05357 23.6522 2 21 2C18.3478 2 15.8043 3.05357 13.9289 4.92893C12.0536 6.8043 11 9.34783 11 12C11 23.6667 6 27 6 27H36C36 27 31 23.6667 31 12Z" stroke="#243141" stroke-width="3" stroke-linecap="round" stroke-linejoin="round"/>
<path d="M23.8831 33.6666C23.5901 34.1718 23.1695 34.591 22.6635 34.8825C22.1575 35.174 21.5838 35.3274 20.9998 35.3274C20.4158 35.3274 19.8421 35.174 19.3361 34.8825C18.8301 34.591 18.4095 34.1718 18.1165 33.6666" stroke="#243141" stroke-width="3" stroke-linecap="round" stroke-linejoin="round"/>
</g>
<defs>
<filter id="filter0_d_246_992" x="0.5" y="0.5" width="41" height="44.3274" filterUnits="userSpaceOnUse" color-interpolation-filters="sRGB">
<feFlood flood-opacity="0" result="BackgroundImageFix"/>
<feColorMatrix in="SourceAlpha" type="matrix" values="0 0 0 0 0 0 0 0 0 0 0 0 0 0 0 0 0 0 127 0" result="hardAlpha"/>
<feOffset dy="4"/>
<feGaussianBlur stdDeviation="2"/>
<feComposite in2="hardAlpha" operator="out"/>
<feColorMatrix type="matrix" values="0 0 0 0 0 0 0 0 0 0 0 0 0 0 0 0 0 0 0.25 0"/>
<feBlend mode="normal" in2="BackgroundImageFix" result="effect1_dropShadow_246_992"/>
<feBlend mode="normal" in="SourceGraphic" in2="effect1_dropShadow_246_992" result="shape"/>
</filter>
</defs>
</svg>
