<svg width="15" height="13" viewBox="0 0 15 13" fill="none" xmlns="http://www.w3.org/2000/svg">
<path d="M10 7.75C10 8.26775 10.4197 8.6875 10.9375 8.6875C11.4553 8.6875 11.875 8.26775 11.875 7.75C11.875 7.23225 11.4553 6.8125 10.9375 6.8125C10.4197 6.8125 10 7.23225 10 7.75Z" stroke="#2A353D"/>
<path d="M6.25 3.375H10C11.7677 3.375 12.6516 3.375 13.2008 3.92418C13.75 4.47335 13.75 5.35725 13.75 7.125V8.375C13.75 10.1427 13.75 11.0266 13.2008 11.5758C12.6516 12.125 11.7677 12.125 10 12.125H6.25C3.89298 12.125 2.71447 12.125 1.98223 11.3927C1.25 10.6606 1.25 9.482 1.25 7.125V5.875C1.25 3.51798 1.25 2.33947 1.98223 1.60723C2.71447 0.875 3.89298 0.875 6.25 0.875H8.75C9.33125 0.875 9.62187 0.875 9.86031 0.938888C10.5073 1.11226 11.0128 1.61767 11.1861 2.26471C11.25 2.50315 11.25 2.79377 11.25 3.375" stroke="#2A353D" stroke-linecap="round"/>
</svg>
