<svg width="39" height="42" viewBox="0 0 39 42" fill="none" xmlns="http://www.w3.org/2000/svg">
<path d="M21.1892 37.6995L18.5103 39.4284C16.0214 40.9673 12.5635 39.2384 12.5635 36.1605V25.996C12.5635 24.647 11.8036 22.9181 11.0246 21.9682L3.72892 14.2924C2.75997 13.3235 2 11.6136 2 10.4547V6.04685C2 3.74795 3.72892 2.01904 5.83783 2.01904H31.1827C33.2916 2.01904 35.0206 3.74801 35.0206 5.85691V10.0747C35.0206 11.6136 34.0516 13.5325 33.1017 14.4825" stroke="#292D32" stroke-width="3" stroke-miterlimit="10" stroke-linecap="round" stroke-linejoin="round"/>
<path d="M36.8065 26.2239C36.8065 27.9149 36.3315 29.5108 35.4955 30.8787C33.9376 33.5006 31.0687 35.2486 27.7819 35.2486C24.495 35.2486 21.6261 33.4816 20.0682 30.8787C19.2322 29.5298 18.7573 27.9149 18.7573 26.2239C18.7573 21.2462 22.8041 17.1993 27.7819 17.1993C32.7597 17.1993 36.8065 21.2462 36.8065 26.2239Z" stroke="#292D32" stroke-width="3" stroke-miterlimit="10" stroke-linecap="round" stroke-linejoin="round"/>
<path d="M30.1947 28.5798L25.4259 23.811" stroke="#292D32" stroke-width="3" stroke-miterlimit="10" stroke-linecap="round" stroke-linejoin="round"/>
<path d="M30.1568 23.868L25.388 28.6368" stroke="#292D32" stroke-width="3" stroke-miterlimit="10" stroke-linecap="round" stroke-linejoin="round"/>
<path d="M35.0206 5.83787V10.0556C35.0206 11.5946 34.0516 13.5135 33.1017 14.4825L29.7578 17.4273C29.1308 17.2753 28.4658 17.1993 27.7819 17.1993C22.8041 17.1993 18.7573 21.2462 18.7573 26.2239C18.7573 27.9149 19.2323 29.5108 20.0682 30.8787C20.7712 32.0567 21.7401 33.0636 22.9181 33.7856V34.4316C22.9181 35.5905 22.1581 37.1295 21.1892 37.6994L18.5103 39.4284C16.0214 40.9673 12.5635 39.2384 12.5635 36.1605V25.996C12.5635 24.647 11.7846 22.9181 11.0246 21.9681L3.72892 14.2924C2.77897 13.3235 2 11.5946 2 10.4547V6.02782C2 3.72892 3.72892 2 5.83783 2H31.1827C33.2916 2 35.0206 3.72896 35.0206 5.83787Z" stroke="#292D32" stroke-width="3" stroke-miterlimit="10" stroke-linecap="round" stroke-linejoin="round"/>
</svg>
