<svg width="47" height="47" viewBox="0 0 47 47" fill="none" xmlns="http://www.w3.org/2000/svg">
<g filter="url(#filter0_d_746_1567)">
<g filter="url(#filter1_d_746_1567)">
<circle cx="23.5" cy="17.5" r="16.5" fill="white"/>
<circle cx="23.5" cy="17.5" r="16" stroke="#243141"/>
</g>
<path d="M22.0628 13.474L16.4513 19.2806C16.3273 19.4079 16.2293 19.5589 16.163 19.7249C16.0967 19.8909 16.0634 20.0687 16.065 20.2478C16.0666 20.427 16.1032 20.6041 16.1725 20.7689C16.2418 20.9337 16.3426 21.0829 16.4689 21.2079C16.7215 21.4584 17.0614 21.5972 17.4143 21.594C17.7672 21.5908 18.1045 21.4458 18.3525 21.1907L23.0375 16.3428L27.8102 21.1044C28.0628 21.3549 28.4027 21.4937 28.7556 21.4905C29.1085 21.4872 29.4458 21.3422 29.6938 21.0872C29.8164 20.9592 29.913 20.8079 29.9779 20.6419C30.0429 20.476 30.075 20.2986 30.0723 20.12C30.0717 19.9413 30.0364 19.7646 29.9684 19.5998C29.9004 19.435 29.8011 19.2855 29.6762 19.1598L23.9597 13.4567C23.8343 13.3306 23.6856 13.2309 23.5222 13.1635C23.3588 13.0961 23.1839 13.0622 23.0075 13.0638C22.8312 13.0654 22.6569 13.1025 22.4948 13.1729C22.3326 13.2433 22.1858 13.3456 22.0628 13.474Z" fill="#243141"/>
</g>
<defs>
<filter id="filter0_d_746_1567" x="3" y="1" width="41" height="41" filterUnits="userSpaceOnUse" color-interpolation-filters="sRGB">
<feFlood flood-opacity="0" result="BackgroundImageFix"/>
<feColorMatrix in="SourceAlpha" type="matrix" values="0 0 0 0 0 0 0 0 0 0 0 0 0 0 0 0 0 0 127 0" result="hardAlpha"/>
<feOffset dy="4"/>
<feGaussianBlur stdDeviation="2"/>
<feComposite in2="hardAlpha" operator="out"/>
<feColorMatrix type="matrix" values="0 0 0 0 0 0 0 0 0 0 0 0 0 0 0 0 0 0 0.25 0"/>
<feBlend mode="normal" in2="BackgroundImageFix" result="effect1_dropShadow_746_1567"/>
<feBlend mode="normal" in="SourceGraphic" in2="effect1_dropShadow_746_1567" result="shape"/>
</filter>
<filter id="filter1_d_746_1567" x="0" y="0" width="47" height="47" filterUnits="userSpaceOnUse" color-interpolation-filters="sRGB">
<feFlood flood-opacity="0" result="BackgroundImageFix"/>
<feColorMatrix in="SourceAlpha" type="matrix" values="0 0 0 0 0 0 0 0 0 0 0 0 0 0 0 0 0 0 127 0" result="hardAlpha"/>
<feOffset dy="6"/>
<feGaussianBlur stdDeviation="3.5"/>
<feComposite in2="hardAlpha" operator="out"/>
<feColorMatrix type="matrix" values="0 0 0 0 0 0 0 0 0 0 0 0 0 0 0 0 0 0 0.25 0"/>
<feBlend mode="normal" in2="BackgroundImageFix" result="effect1_dropShadow_746_1567"/>
<feBlend mode="normal" in="SourceGraphic" in2="effect1_dropShadow_746_1567" result="shape"/>
</filter>
</defs>
</svg>
