<svg width="22" height="14" viewBox="0 0 22 14" fill="none" xmlns="http://www.w3.org/2000/svg">
<path d="M15 3.5C14.3078 3.5 13.6311 3.70527 13.0555 4.08986C12.4799 4.47444 12.0313 5.02107 11.7664 5.66061C11.5015 6.30015 11.4322 7.00388 11.5673 7.68282C11.7023 8.36175 12.0356 8.98539 12.5251 9.47487C13.0146 9.96436 13.6383 10.2977 14.3172 10.4327C14.9961 10.5678 15.6999 10.4985 16.3394 10.2336C16.9789 9.96867 17.5256 9.52007 17.9101 8.9445C18.2947 8.36892 18.5 7.69223 18.5 7C18.5 6.07174 18.1313 5.1815 17.4749 4.52513C16.8185 3.86875 15.9283 3.5 15 3.5ZM15 8.5C14.7033 8.5 14.4133 8.41203 14.1666 8.2472C13.92 8.08238 13.7277 7.84811 13.6142 7.57403C13.5006 7.29994 13.4709 6.99834 13.5288 6.70736C13.5867 6.41639 13.7296 6.14912 13.9393 5.93934C14.1491 5.72956 14.4164 5.5867 14.7074 5.52882C14.9983 5.47094 15.2999 5.50065 15.574 5.61418C15.8481 5.72771 16.0824 5.91997 16.2472 6.16665C16.412 6.41332 16.5 6.70333 16.5 7C16.5 7.39782 16.342 7.77936 16.0607 8.06066C15.7794 8.34196 15.3978 8.5 15 8.5ZM15 0H7C5.14348 2.76642e-08 3.36301 0.737498 2.05025 2.05025C0.737498 3.36301 0 5.14348 0 7C0 8.85652 0.737498 10.637 2.05025 11.9497C3.36301 13.2625 5.14348 14 7 14H15C16.8565 14 18.637 13.2625 19.9497 11.9497C21.2625 10.637 22 8.85652 22 7C22 5.14348 21.2625 3.36301 19.9497 2.05025C18.637 0.737498 16.8565 2.76642e-08 15 0ZM15 12H7C5.67392 12 4.40215 11.4732 3.46447 10.5355C2.52678 9.59785 2 8.32608 2 7C2 5.67392 2.52678 4.40215 3.46447 3.46447C4.40215 2.52678 5.67392 2 7 2H15C16.3261 2 17.5979 2.52678 18.5355 3.46447C19.4732 4.40215 20 5.67392 20 7C20 8.32608 19.4732 9.59785 18.5355 10.5355C17.5979 11.4732 16.3261 12 15 12Z" fill="black"/>
</svg>
