<svg width="15" height="18" viewBox="0 0 15 18" fill="none" xmlns="http://www.w3.org/2000/svg">
<path d="M10.5 10.6875C9.53906 10.6875 9.07701 11.25 7.5 11.25C5.92299 11.25 5.46429 10.6875 4.5 10.6875C2.01562 10.6875 0 12.8039 0 15.4125V16.3125C0 17.2441 0.719866 18 1.60714 18H13.3929C14.2801 18 15 17.2441 15 16.3125V15.4125C15 12.8039 12.9844 10.6875 10.5 10.6875ZM13.3929 16.3125H1.60714V15.4125C1.60714 13.7391 2.90625 12.375 4.5 12.375C4.98884 12.375 5.78237 12.9375 7.5 12.9375C9.23103 12.9375 10.0078 12.375 10.5 12.375C12.0938 12.375 13.3929 13.7391 13.3929 15.4125V16.3125ZM7.5 10.125C10.1618 10.125 12.3214 7.85742 12.3214 5.0625C12.3214 2.26758 10.1618 0 7.5 0C4.83817 0 2.67857 2.26758 2.67857 5.0625C2.67857 7.85742 4.83817 10.125 7.5 10.125ZM7.5 1.6875C9.2712 1.6875 10.7143 3.20273 10.7143 5.0625C10.7143 6.92227 9.2712 8.4375 7.5 8.4375C5.72879 8.4375 4.28571 6.92227 4.28571 5.0625C4.28571 3.20273 5.72879 1.6875 7.5 1.6875Z" fill="#243141"/>
</svg>
