<svg width="32" height="32" viewBox="0 0 32 32" fill="none" xmlns="http://www.w3.org/2000/svg">
<path d="M28.8656 17.0559C28.6091 16.7639 28.4677 16.3886 28.4677 16C28.4677 15.6114 28.6091 15.2361 28.8656 14.9441L30.9133 12.6405C31.139 12.3888 31.2791 12.0721 31.3136 11.7358C31.3481 11.3995 31.2751 11.061 31.1053 10.7687L27.9057 5.23346C27.7376 4.94154 27.4816 4.71014 27.1742 4.57225C26.8669 4.43437 26.5238 4.39703 26.194 4.46557L23.1864 5.07349C22.8037 5.15256 22.4053 5.08883 22.0663 4.89431C21.7274 4.69979 21.4714 4.38795 21.3466 4.01763L20.3708 1.09003C20.2634 0.772277 20.059 0.496292 19.7862 0.301082C19.5135 0.105872 19.1863 0.0013099 18.851 0.00217564H12.4518C12.103 -0.0160331 11.7577 0.0804472 11.4689 0.276881C11.18 0.473314 10.9634 0.758903 10.852 1.09003L9.95617 4.01763C9.83139 4.38795 9.57537 4.69979 9.23645 4.89431C8.89752 5.08883 8.49911 5.15256 8.11642 5.07349L5.02884 4.46557C4.71616 4.42138 4.3974 4.47072 4.11272 4.60737C3.82803 4.74402 3.59016 4.96187 3.42906 5.23346L0.22949 10.7687C0.0553701 11.0577 -0.02292 11.3944 0.00581288 11.7305C0.0345457 12.0667 0.16883 12.3852 0.389468 12.6405L2.42119 14.9441C2.67767 15.2361 2.81911 15.6114 2.81911 16C2.81911 16.3886 2.67767 16.7639 2.42119 17.0559L0.389468 19.3595C0.16883 19.6148 0.0345457 19.9333 0.00581288 20.2695C-0.02292 20.6056 0.0553701 20.9423 0.22949 21.2313L3.42906 26.7665C3.59719 27.0585 3.85319 27.2899 4.16056 27.4277C4.46793 27.5656 4.81099 27.603 5.14082 27.5344L8.14841 26.9265C8.53111 26.8474 8.92951 26.9112 9.26844 27.1057C9.60737 27.3002 9.86338 27.612 9.98816 27.9824L10.964 30.91C11.0753 31.2411 11.292 31.5267 11.5809 31.7231C11.8697 31.9196 12.215 32.016 12.5638 31.9978H18.9629C19.2983 31.9987 19.6255 31.8941 19.8982 31.6989C20.1709 31.5037 20.3754 31.2277 20.4827 30.91L21.4586 27.9824C21.5834 27.612 21.8394 27.3002 22.1783 27.1057C22.5173 26.9112 22.9157 26.8474 23.2984 26.9265L26.3059 27.5344C26.6358 27.603 26.9788 27.5656 27.2862 27.4277C27.5936 27.2899 27.8496 27.0585 28.0177 26.7665L31.2173 21.2313C31.3871 20.939 31.46 20.6005 31.4256 20.2642C31.3911 19.9279 31.2509 19.6112 31.0253 19.3595L28.8656 17.0559ZM26.4819 19.1996L27.7617 20.6394L25.714 24.1909L23.8263 23.8069C22.6741 23.5714 21.4755 23.7671 20.4581 24.3569C19.4407 24.9468 18.6752 25.8896 18.307 27.0065L17.6991 28.7983H13.6037L13.0278 26.9745C12.6596 25.8576 11.8941 24.9148 10.8767 24.325C9.85927 23.7351 8.6607 23.5394 7.5085 23.7749L5.62076 24.1589L3.54104 20.6234L4.82087 19.1836C5.60789 18.3037 6.04299 17.1645 6.04299 15.984C6.04299 14.8035 5.60789 13.6644 4.82087 12.7844L3.54104 11.3446L5.58876 7.82511L7.4765 8.20906C8.6287 8.44458 9.82727 8.24886 10.8447 7.65905C11.8621 7.06924 12.6276 6.1264 12.9958 5.00949L13.6037 3.20174H17.6991L18.307 5.02549C18.6752 6.14239 19.4407 7.08524 20.4581 7.67505C21.4755 8.26486 22.6741 8.46058 23.8263 8.22506L25.714 7.84111L27.7617 11.3926L26.4819 12.8324C25.7037 13.7103 25.274 14.8428 25.274 16.016C25.274 17.1891 25.7037 18.3217 26.4819 19.1996ZM15.6514 9.60087C14.3858 9.60087 13.1486 9.97617 12.0962 10.6793C11.0439 11.3825 10.2237 12.3819 9.73937 13.5512C9.25503 14.7204 9.12831 16.0071 9.37522 17.2484C9.62213 18.4897 10.2316 19.6299 11.1265 20.5249C12.0215 21.4198 13.1617 22.0293 14.403 22.2762C15.6443 22.5231 16.9309 22.3964 18.1002 21.912C19.2695 21.4277 20.2689 20.6075 20.9721 19.5552C21.6752 18.5028 22.0505 17.2656 22.0505 16C22.0505 14.3028 21.3763 12.6752 20.1763 11.4751C18.9762 10.2751 17.3485 9.60087 15.6514 9.60087ZM15.6514 19.1996C15.0186 19.1996 14.4 19.0119 13.8738 18.6603C13.3476 18.3088 12.9375 17.8091 12.6954 17.2244C12.4532 16.6398 12.3899 15.9965 12.5133 15.3758C12.6368 14.7551 12.9415 14.185 13.389 13.7376C13.8364 13.2901 14.4065 12.9854 15.0272 12.8619C15.6478 12.7385 16.2912 12.8018 16.8758 13.044C17.4605 13.2862 17.9602 13.6963 18.3117 14.2224C18.6633 14.7486 18.851 15.3672 18.851 16C18.851 16.8486 18.5139 17.6624 17.9138 18.2624C17.3138 18.8625 16.5 19.1996 15.6514 19.1996Z" fill="#243141"/>
</svg>
