<svg width="31" height="34" viewBox="0 0 31 34" fill="none" xmlns="http://www.w3.org/2000/svg">
<path fill-rule="evenodd" clip-rule="evenodd" d="M11.9 3.4C11.4491 3.4 11.0167 3.57911 10.6979 3.89792C10.3791 4.21673 10.2 4.64913 10.2 5.1C10.2 5.55087 10.3791 5.98327 10.6979 6.30208C11.0167 6.62089 11.4491 6.8 11.9 6.8H18.7C19.1509 6.8 19.5833 6.62089 19.9021 6.30208C20.2209 5.98327 20.4 5.55087 20.4 5.1C20.4 4.64913 20.2209 4.21673 19.9021 3.89792C19.5833 3.57911 19.1509 3.4 18.7 3.4H11.9ZM11.9 2.12442e-07C10.8449 -0.000304178 9.81575 0.3265 8.95415 0.935408C8.09255 1.54432 7.44092 2.40537 7.089 3.4H5.1C3.7474 3.4 2.45019 3.93732 1.49376 4.89376C0.53732 5.85019 0 7.1474 0 8.5V28.9C0 30.2526 0.53732 31.5498 1.49376 32.5062C2.45019 33.4627 3.7474 34 5.1 34H25.5C26.8526 34 28.1498 33.4627 29.1062 32.5062C30.0627 31.5498 30.6 30.2526 30.6 28.9V8.5C30.6 7.1474 30.0627 5.85019 29.1062 4.89376C28.1498 3.93732 26.8526 3.4 25.5 3.4H23.511C23.1591 2.40537 22.5075 1.54432 21.6458 0.935408C20.7842 0.3265 19.755 -0.000304178 18.7 2.12442e-07H11.9ZM8.5 13.6C8.04913 13.6 7.61673 13.7791 7.29792 14.0979C6.97911 14.4167 6.8 14.8491 6.8 15.3C6.8 15.7509 6.97911 16.1833 7.29792 16.5021C7.61673 16.8209 8.04913 17 8.5 17H22.1C22.5509 17 22.9833 16.8209 23.3021 16.5021C23.6209 16.1833 23.8 15.7509 23.8 15.3C23.8 14.8491 23.6209 14.4167 23.3021 14.0979C22.9833 13.7791 22.5509 13.6 22.1 13.6H8.5ZM8.5 20.4C8.04913 20.4 7.61673 20.5791 7.29792 20.8979C6.97911 21.2167 6.8 21.6491 6.8 22.1C6.8 22.5509 6.97911 22.9833 7.29792 23.3021C7.61673 23.6209 8.04913 23.8 8.5 23.8H15.3C15.7509 23.8 16.1833 23.6209 16.5021 23.3021C16.8209 22.9833 17 22.5509 17 22.1C17 21.6491 16.8209 21.2167 16.5021 20.8979C16.1833 20.5791 15.7509 20.4 15.3 20.4H8.5Z" fill="#243141"/>
</svg>
