<svg width="33" height="34" viewBox="0 0 33 34" fill="none" xmlns="http://www.w3.org/2000/svg">
<path d="M0.0487527 11.7653C0.790541 9.48107 2.01248 7.38426 3.62482 5.60728C3.89745 5.30679 4.3252 5.19969 4.70817 5.33604L8.56132 6.70783C9.60595 7.07955 10.7554 6.53766 11.1287 5.49751C11.1654 5.39522 11.1937 5.29016 11.2132 5.18347L11.9473 1.17146C12.0203 0.772568 12.328 0.457028 12.7263 0.372594C13.8917 0.125615 15.0866 0 16.2971 0C17.5069 0 18.7011 0.125474 19.8658 0.372141C20.264 0.456489 20.5717 0.771831 20.6448 1.17059L21.381 5.1833C21.58 6.26994 22.6259 6.99019 23.7174 6.79204C23.8248 6.77254 23.9302 6.7444 24.0328 6.70789L27.886 5.33604C28.2689 5.19969 28.6966 5.30679 28.9693 5.60728C30.5817 7.38426 31.8036 9.48107 32.5456 11.7653C32.6706 12.1507 32.5498 12.5732 32.2398 12.8353L29.1167 15.4755C28.2712 16.1904 28.1678 17.4525 28.8857 18.2945C28.9563 18.3773 29.0336 18.4542 29.1167 18.5245L32.2398 21.1647C32.5498 21.4268 32.6706 21.8493 32.5456 22.2347C31.8036 24.519 30.5817 26.6158 28.9693 28.3927C28.6966 28.6931 28.2689 28.8002 27.886 28.6639L24.0328 27.2921C22.9884 26.9205 21.8388 27.4624 21.4655 28.5023C21.4288 28.6047 21.4005 28.7098 21.3809 28.817L20.6448 32.8294C20.5717 33.2282 20.264 33.5434 19.8658 33.6279C18.7011 33.8744 17.5069 34 16.2971 34C15.0866 34 13.8917 33.8744 12.7263 33.6273C12.328 33.5428 12.0203 33.2274 11.9473 32.8286L11.2133 28.8167C11.0142 27.73 9.96822 27.0098 8.87688 27.2079C8.76955 27.2275 8.66403 27.2555 8.56149 27.2921L4.70817 28.6639C4.3252 28.8002 3.89745 28.6931 3.62482 28.3927C2.01248 26.6158 0.790541 24.519 0.0487527 22.2347C-0.0763808 21.8493 0.044274 21.4268 0.354373 21.1647L3.47747 18.5245C4.32307 17.8096 4.4265 16.5474 3.70849 15.7055C3.63789 15.6227 3.56062 15.5457 3.47749 15.4755L0.354373 12.8353C0.044274 12.5732 -0.0763808 12.1507 0.0487527 11.7653ZM11.3368 16.9998C11.3368 19.7391 13.5574 21.9598 16.2968 21.9598C19.0361 21.9598 21.2568 19.7391 21.2568 16.9998C21.2568 14.2605 19.0361 12.0398 16.2968 12.0398C13.5574 12.0398 11.3368 14.2605 11.3368 16.9998Z" fill="#243141"/>
</svg>
