<svg width="42" height="47" viewBox="0 0 42 47" fill="none" xmlns="http://www.w3.org/2000/svg">
<g filter="url(#filter0_d_66_350)">
<path d="M19.048 38.5716C18.1861 38.5716 17.3242 38.3561 16.5341 37.9252C14.9359 37.0273 13.9841 35.4291 13.9841 33.6155V24.0085C13.9841 23.0927 13.3915 21.7459 12.8348 21.0456L6.01118 13.8808C4.87989 12.7495 4 10.7742 4 9.31969V5.15372C4 2.26264 6.19079 0 8.97413 0H32.9288C35.6762 0 37.9029 2.22671 37.9029 4.97413V8.96058C37.9029 10.8461 36.7716 13.0188 35.6942 14.0783C35.1734 14.599 34.3115 14.599 33.7907 14.0783C33.27 13.5575 33.27 12.6956 33.7907 12.1749C34.4551 11.5104 35.2093 10.02 35.2093 8.96058V4.97413C35.2093 3.71714 34.1858 2.69355 32.9288 2.69355H8.97413C7.69918 2.69355 6.69355 3.77103 6.69355 5.15372V9.31969C6.69355 9.9841 7.23226 11.295 7.93258 11.9953L14.8461 19.2678C15.7619 20.3991 16.6597 22.3026 16.6597 24.0085V33.6155C16.6597 34.8006 17.4678 35.3753 17.8269 35.5728C18.5991 36.0038 19.5149 35.9858 20.2332 35.5548L22.7472 33.9387C23.2679 33.6334 23.7707 32.6458 23.7707 31.9814C23.7707 31.2452 24.3812 30.6346 25.1175 30.6346C25.8537 30.6346 26.4643 31.2452 26.4643 31.9814C26.4643 33.5975 25.4587 35.4471 24.1837 36.2193L21.6877 37.8354C20.8796 38.3202 19.9638 38.5716 19.048 38.5716Z" fill="#243141"/>
<path d="M28.2784 28.7314C24.3638 28.7314 21.1854 25.553 21.1854 21.6384C21.1854 17.7238 24.3638 14.5454 28.2784 14.5454C32.1931 14.5454 35.3715 17.7238 35.3715 21.6384C35.3715 25.553 32.1931 28.7314 28.2784 28.7314ZM28.2784 17.2389C25.8542 17.2389 23.879 19.2142 23.879 21.6384C23.879 24.0626 25.8542 26.0379 28.2784 26.0379C30.7026 26.0379 32.6779 24.0626 32.6779 21.6384C32.6779 19.2142 30.7026 17.2389 28.2784 17.2389Z" fill="#243141"/>
<path d="M35.101 29.8087C34.7598 29.8087 34.4186 29.683 34.1493 29.4137L32.3536 27.618C31.8328 27.0972 31.8328 26.2353 32.3536 25.7145C32.8743 25.1938 33.7363 25.1938 34.257 25.7145L36.0527 27.5102C36.5735 28.031 36.5735 28.8929 36.0527 29.4137C35.8013 29.6651 35.4422 29.8087 35.101 29.8087Z" fill="#243141"/>
</g>
<defs>
<filter id="filter0_d_66_350" x="0" y="0" width="41.9028" height="46.5717" filterUnits="userSpaceOnUse" color-interpolation-filters="sRGB">
<feFlood flood-opacity="0" result="BackgroundImageFix"/>
<feColorMatrix in="SourceAlpha" type="matrix" values="0 0 0 0 0 0 0 0 0 0 0 0 0 0 0 0 0 0 127 0" result="hardAlpha"/>
<feOffset dy="4"/>
<feGaussianBlur stdDeviation="2"/>
<feComposite in2="hardAlpha" operator="out"/>
<feColorMatrix type="matrix" values="0 0 0 0 0 0 0 0 0 0 0 0 0 0 0 0 0 0 0.25 0"/>
<feBlend mode="normal" in2="BackgroundImageFix" result="effect1_dropShadow_66_350"/>
<feBlend mode="normal" in="SourceGraphic" in2="effect1_dropShadow_66_350" result="shape"/>
</filter>
</defs>
</svg>
