<svg width="15" height="15" viewBox="0 0 15 15" fill="none" xmlns="http://www.w3.org/2000/svg">
<g clip-path="url(#clip0_788_2937)">
<path d="M13.75 7.5C13.75 10.9517 10.9517 13.75 7.5 13.75C4.04822 13.75 1.25 10.9517 1.25 7.5C1.25 4.04822 4.04822 1.25 7.5 1.25C10.9517 1.25 13.75 4.04822 13.75 7.5Z" stroke="#2A353D"/>
<path d="M8.75 6.32987C8.75 6.58875 8.95987 6.79862 9.21875 6.79862C9.47763 6.79862 9.6875 6.58875 9.6875 6.32987H8.75ZM6.09375 8.67037C6.09375 8.4115 5.88388 8.20162 5.625 8.20162C5.36612 8.20162 5.15625 8.4115 5.15625 8.67037H6.09375ZM7.96875 4.375C7.96875 4.11612 7.75888 3.90625 7.5 3.90625C7.24112 3.90625 7.03125 4.11612 7.03125 4.375H7.96875ZM7.03125 10.625C7.03125 10.8839 7.24112 11.0938 7.5 11.0938C7.75888 11.0938 7.96875 10.8839 7.96875 10.625H7.03125ZM7.5 6.94138C6.90488 6.94138 6.58944 6.84644 6.43263 6.7415C6.316 6.66344 6.25 6.55681 6.25 6.32987H5.3125C5.3125 6.79894 5.48085 7.2325 5.91111 7.5205C6.30119 7.78169 6.84513 7.87888 7.5 7.87888V6.94138ZM6.25 6.32987C6.25 6.16708 6.339 5.98012 6.56181 5.81672C6.78438 5.65354 7.11456 5.53833 7.5 5.53833V4.60083C6.93619 4.60083 6.407 4.76775 6.00748 5.06069C5.60824 5.35343 5.3125 5.79662 5.3125 6.32987H6.25ZM7.5 5.53833C7.88544 5.53833 8.21563 5.65354 8.43813 5.81672C8.661 5.98012 8.75 6.16708 8.75 6.32987H9.6875C9.6875 5.79662 9.39175 5.35343 8.9925 5.06069C8.593 4.76775 8.06381 4.60083 7.5 4.60083V5.53833ZM8.90625 8.67037C8.90625 8.94275 8.79444 9.11094 8.58556 9.23563C8.34825 9.37731 7.9755 9.46194 7.5 9.46194V10.3994C8.06 10.3994 8.62481 10.3041 9.06606 10.0406C9.53581 9.76019 9.84375 9.29825 9.84375 8.67037H8.90625ZM7.5 9.46194C7.06262 9.46194 6.68775 9.34194 6.43569 9.1725C6.18067 9.00112 6.09375 8.81475 6.09375 8.67037H5.15625C5.15625 9.22212 5.48907 9.66587 5.91268 9.95062C6.33925 10.2373 6.90181 10.3994 7.5 10.3994V9.46194ZM7.5 7.87888C8.09887 7.87888 8.45494 7.96881 8.65131 8.09606C8.805 8.19569 8.90625 8.34625 8.90625 8.67037H9.84375C9.84375 8.09437 9.6325 7.61481 9.16119 7.30931C8.73256 7.0315 8.15113 6.94138 7.5 6.94138V7.87888ZM7.96875 5.06958V4.375H7.03125V5.06958H7.96875ZM7.03125 9.93069V10.625H7.96875V9.93069H7.03125Z" fill="#2A353D"/>
</g>
<defs>
<clipPath id="clip0_788_2937">
<rect width="15" height="15" fill="white"/>
</clipPath>
</defs>
</svg>
