<svg width="23" height="26" viewBox="0 0 23 26" fill="none" xmlns="http://www.w3.org/2000/svg">
<g filter="url(#filter0_d_469_1200)">
<path d="M14.2501 4.5H13.1251C13.1251 3.75408 12.8288 3.03871 12.3014 2.51126C11.7739 1.98382 11.0585 1.6875 10.3126 1.6875C9.5667 1.6875 8.85133 1.98382 8.32388 2.51126C7.79644 3.03871 7.50012 3.75408 7.50012 4.5H6.37512C6.37512 3.45571 6.78996 2.45419 7.52839 1.71577C8.26681 0.977343 9.26833 0.5625 10.3126 0.5625C11.3569 0.5625 12.3584 0.977343 13.0969 1.71577C13.8353 2.45419 14.2501 3.45571 14.2501 4.5Z" fill="black"/>
<path d="M17.0624 8.4375C16.7718 8.43855 16.4866 8.51615 16.2355 8.6625C16.0839 8.42197 15.8739 8.22366 15.6251 8.08598C15.3763 7.94831 15.0967 7.87573 14.8124 7.875C14.5218 7.87605 14.2366 7.95365 13.9855 8.1C13.7809 7.77799 13.4731 7.53483 13.1125 7.4102C12.7519 7.28556 12.3597 7.28682 11.9999 7.41375V4.5C11.9999 4.05245 11.8221 3.62323 11.5056 3.30676C11.1892 2.99029 10.7599 2.8125 10.3124 2.8125C9.86484 2.8125 9.43562 2.99029 9.11915 3.30676C8.80268 3.62323 8.62489 4.05245 8.62489 4.5V10.7438L7.37052 9.88875C7.08296 9.6746 6.73342 9.56006 6.37489 9.5625C6.04019 9.56167 5.71281 9.6604 5.43436 9.84612C5.15591 10.0318 4.93899 10.2962 4.81115 10.6055C4.68332 10.9148 4.65036 11.2552 4.71647 11.5833C4.78257 11.9114 4.94475 12.2124 5.18239 12.4481L9.68239 16.5544C10.3195 17.1246 11.1449 17.4391 11.9999 17.4375H14.8124C15.8567 17.4375 16.8582 17.0227 17.5966 16.2842C18.3351 15.5458 18.7499 14.5443 18.7499 13.5V10.125C18.7499 9.67745 18.5721 9.24823 18.2556 8.93176C17.9392 8.61529 17.5099 8.4375 17.0624 8.4375ZM17.6249 13.5C17.6249 14.2459 17.3286 14.9613 16.8011 15.4887C16.2737 16.0162 15.5583 16.3125 14.8124 16.3125H11.9999C11.4313 16.3194 10.8796 16.1195 10.4474 15.75L5.97552 11.6438C5.8716 11.539 5.81301 11.3976 5.81239 11.25C5.81239 11.1455 5.84148 11.0431 5.8964 10.9543C5.95132 10.8654 6.0299 10.7936 6.12334 10.7469C6.21677 10.7002 6.32137 10.6804 6.42541 10.6898C6.52945 10.6992 6.62882 10.7373 6.71239 10.8L9.74989 12.8813V4.5C9.74989 4.35082 9.80916 4.20774 9.91465 4.10225C10.0201 3.99676 10.1632 3.9375 10.3124 3.9375C10.4616 3.9375 10.6047 3.99676 10.7101 4.10225C10.8156 4.20774 10.8749 4.35082 10.8749 4.5V10.6875H11.9999V9C11.9999 8.85082 12.0592 8.70774 12.1646 8.60225C12.2701 8.49676 12.4132 8.4375 12.5624 8.4375C12.7116 8.4375 12.8547 8.49676 12.9601 8.60225C13.0656 8.70774 13.1249 8.85082 13.1249 9V10.6875H14.2499V9.5625C14.2499 9.41332 14.3092 9.27024 14.4146 9.16475C14.5201 9.05926 14.6632 9 14.8124 9C14.9616 9 15.1047 9.05926 15.2101 9.16475C15.3156 9.27024 15.3749 9.41332 15.3749 9.5625V10.6875H16.4999V10.125C16.4999 9.97582 16.5592 9.83274 16.6646 9.72725C16.7701 9.62176 16.9132 9.5625 17.0624 9.5625C17.2116 9.5625 17.3547 9.62176 17.4601 9.72725C17.5656 9.83274 17.6249 9.97582 17.6249 10.125V13.5Z" fill="black"/>
</g>
<defs>
<filter id="filter0_d_469_1200" x="0.683228" y="0.5625" width="22.0667" height="24.875" filterUnits="userSpaceOnUse" color-interpolation-filters="sRGB">
<feFlood flood-opacity="0" result="BackgroundImageFix"/>
<feColorMatrix in="SourceAlpha" type="matrix" values="0 0 0 0 0 0 0 0 0 0 0 0 0 0 0 0 0 0 127 0" result="hardAlpha"/>
<feOffset dy="4"/>
<feGaussianBlur stdDeviation="2"/>
<feComposite in2="hardAlpha" operator="out"/>
<feColorMatrix type="matrix" values="0 0 0 0 0 0 0 0 0 0 0 0 0 0 0 0 0 0 0.25 0"/>
<feBlend mode="normal" in2="BackgroundImageFix" result="effect1_dropShadow_469_1200"/>
<feBlend mode="normal" in="SourceGraphic" in2="effect1_dropShadow_469_1200" result="shape"/>
</filter>
</defs>
</svg>
