<svg width="47" height="47" viewBox="0 0 47 47" fill="none" xmlns="http://www.w3.org/2000/svg">
<g filter="url(#filter0_d_534_1360)">
<path d="M18.0582 29.9302C17.8768 29.9302 17.7135 29.8939 17.5321 29.8214C17.0242 29.6218 16.6977 29.1139 16.6977 28.5697V17.686C16.6977 16.9423 17.3144 16.3256 18.0582 16.3256C18.8019 16.3256 19.4186 16.9423 19.4186 17.686V25.2865L20.7247 23.9804C21.2507 23.4544 22.1214 23.4544 22.6475 23.9804C23.1735 24.5065 23.1735 25.3772 22.6475 25.9032L19.0196 29.5311C18.7656 29.7851 18.4028 29.9302 18.0582 29.9302Z" fill="#243141"/>
<path d="M18.0572 29.9301C17.7125 29.9301 17.3679 29.8031 17.0958 29.531L13.4679 25.9031C12.9418 25.3771 12.9418 24.5064 13.4679 23.9804C13.9939 23.4543 14.8646 23.4543 15.3907 23.9804L19.0186 27.6083C19.5446 28.1343 19.5446 29.005 19.0186 29.531C18.7465 29.8031 18.4018 29.9301 18.0572 29.9301Z" fill="#243141"/>
<path d="M28.9419 39H18.0581C8.20837 39 4 34.7916 4 24.9419V14.0581C4 4.20837 8.20837 0 18.0581 0H27.1279C27.8716 0 28.4884 0.616744 28.4884 1.36047C28.4884 2.10419 27.8716 2.72093 27.1279 2.72093H18.0581C9.69581 2.72093 6.72093 5.69581 6.72093 14.0581V24.9419C6.72093 33.3042 9.69581 36.2791 18.0581 36.2791H28.9419C37.3042 36.2791 40.2791 33.3042 40.2791 24.9419V15.8721C40.2791 15.1284 40.8958 14.5116 41.6395 14.5116C42.3833 14.5116 43 15.1284 43 15.8721V24.9419C43 34.7916 38.7916 39 28.9419 39Z" fill="#243141"/>
<path d="M41.6396 17.2326H34.3838C28.1801 17.2326 25.7675 14.82 25.7675 8.61629V1.36047C25.7675 0.816287 26.094 0.30838 26.6019 0.108845C27.1098 -0.108829 27.6903 0.0181474 28.0894 0.399078L42.601 14.9107C42.9819 15.2916 43.1089 15.8903 42.8912 16.3982C42.6736 16.9061 42.1838 17.2326 41.6396 17.2326ZM28.4884 4.64373V8.61629C28.4884 13.2963 29.7038 14.5116 34.3838 14.5116H38.3563L28.4884 4.64373Z" fill="#243141"/>
</g>
<defs>
<filter id="filter0_d_534_1360" x="0" y="0" width="47" height="47" filterUnits="userSpaceOnUse" color-interpolation-filters="sRGB">
<feFlood flood-opacity="0" result="BackgroundImageFix"/>
<feColorMatrix in="SourceAlpha" type="matrix" values="0 0 0 0 0 0 0 0 0 0 0 0 0 0 0 0 0 0 127 0" result="hardAlpha"/>
<feOffset dy="4"/>
<feGaussianBlur stdDeviation="2"/>
<feComposite in2="hardAlpha" operator="out"/>
<feColorMatrix type="matrix" values="0 0 0 0 0 0 0 0 0 0 0 0 0 0 0 0 0 0 0.25 0"/>
<feBlend mode="normal" in2="BackgroundImageFix" result="effect1_dropShadow_534_1360"/>
<feBlend mode="normal" in="SourceGraphic" in2="effect1_dropShadow_534_1360" result="shape"/>
</filter>
</defs>
</svg>
