<svg width="15" height="18" viewBox="0 0 15 18" fill="none" xmlns="http://www.w3.org/2000/svg">
<path d="M4.05815 8.10809H1.4624C1.11634 8.10809 0.835655 7.86601 0.835655 7.56755V1.26126C0.835655 0.962801 1.11634 0.720719 1.4624 0.720719H13.5376C13.8837 0.720719 14.1643 0.962801 14.1643 1.26126V7.56755C14.1643 7.86601 13.8837 8.10809 13.5376 8.10809H11.9446C11.7139 8.10809 11.5268 8.26943 11.5268 8.46845C11.5268 8.66748 11.7139 8.82881 11.9446 8.82881H13.5376C14.3452 8.82881 15 8.26404 15 7.56755V1.26126C15 0.564769 14.3452 0 13.5376 0H1.4624C0.654834 0 0 0.564769 0 1.26126V7.56755C0 8.26404 0.654834 8.82881 1.4624 8.82881H4.05815C4.28891 8.82881 4.47597 8.66748 4.47597 8.46845C4.47597 8.26943 4.28891 8.10809 4.05815 8.10809Z" fill="black"/>
<path d="M2.48594 2.52248H3.94312C4.17388 2.52248 4.36094 2.36114 4.36094 2.16212C4.36094 1.96309 4.17388 1.80176 3.94312 1.80176H2.48594C2.25518 1.80176 2.06812 1.96309 2.06812 2.16212C2.06812 2.36114 2.25518 2.52248 2.48594 2.52248ZM2.48594 7.03234H3.90133C4.1321 7.03234 4.31916 6.871 4.31916 6.67198C4.31916 6.47296 4.1321 6.31162 3.90133 6.31162H2.48594C2.25518 6.31162 2.06812 6.47296 2.06812 6.67198C2.06812 6.871 2.25518 7.03234 2.48594 7.03234ZM11.054 2.52248H12.5112C12.742 2.52248 12.929 2.36114 12.929 2.16212C12.929 1.96309 12.742 1.80176 12.5112 1.80176H11.054C10.8233 1.80176 10.6362 1.96309 10.6362 2.16212C10.6362 2.36114 10.8233 2.52248 11.054 2.52248ZM11.054 7.02697H12.5112C12.742 7.02697 12.929 6.86564 12.929 6.66661C12.929 6.46759 12.742 6.30625 12.5112 6.30625H11.054C10.8233 6.30625 10.6362 6.46759 10.6362 6.66661C10.6362 6.86564 10.8233 7.02697 11.054 7.02697ZM10.5359 17.6396V15.3819C10.5359 15.2647 10.5691 15.1492 10.6326 15.0455C10.696 14.9418 10.7879 14.853 10.9002 14.7869L11.6425 14.3496C11.867 14.2173 12.0507 14.0397 12.1777 13.8323C12.3046 13.6249 12.3709 13.3939 12.371 13.1594V11.7589C12.371 11.5598 12.1839 11.3985 11.9531 11.3985C11.7224 11.3985 11.5353 11.5598 11.5353 11.7589V13.1594C11.5353 13.2767 11.5021 13.3922 11.4387 13.4959C11.3752 13.5996 11.2833 13.6883 11.1711 13.7545L10.4289 14.1917C10.2043 14.324 10.0206 14.5016 9.89357 14.709C9.76659 14.9164 9.70022 15.1474 9.70022 15.3819V17.6396C9.70022 17.8386 9.88728 17.9999 10.118 17.9999C10.3488 17.9999 10.5359 17.8386 10.5359 17.6396ZM3.84039 11.5079V13.1165C3.84039 13.6239 4.14976 14.0938 4.65481 14.354L5.53255 14.806C5.65669 14.8699 5.75947 14.9606 5.83084 15.0691C5.90222 15.1775 5.93975 15.3001 5.93977 15.4248V17.6396C5.93977 17.8386 6.12683 18 6.3576 18C6.58836 18 6.77543 17.8386 6.77543 17.6396V15.4248C6.7754 15.1754 6.70034 14.9302 6.55759 14.7133C6.41485 14.4964 6.20929 14.3151 5.96101 14.1872L5.08327 13.7352C4.95913 13.6713 4.85636 13.5807 4.78498 13.4722C4.71361 13.3638 4.67607 13.2412 4.67605 13.1165V11.5079C4.67605 11.3089 4.48898 11.1475 4.25822 11.1475C4.02746 11.1475 3.84039 11.3089 3.84039 11.5079Z" fill="black"/>
<path d="M12.3691 12.4764V8.71658C12.3691 8.06981 11.7611 7.54541 11.0112 7.54541H10.9658C10.2159 7.54541 9.60791 8.06981 9.60791 8.71658V10.9449C9.60791 11.1439 9.79497 11.3052 10.0257 11.3052C10.2565 11.3052 10.4436 11.1439 10.4436 10.9449V8.71658C10.4436 8.46785 10.6775 8.26613 10.9658 8.26613H11.0112C11.2996 8.26613 11.5335 8.46785 11.5335 8.71658V12.4764C11.5335 12.6754 11.7205 12.8367 11.9513 12.8367C12.1821 12.8367 12.3691 12.6754 12.3691 12.4764Z" fill="black"/>
<path d="M10.4436 10.1333V7.90506C10.4436 7.25829 9.83555 6.73389 9.08564 6.73389H9.04031C8.29041 6.73389 7.68237 7.25829 7.68237 7.90506V10.818C7.68237 11.017 7.86944 11.1784 8.1002 11.1784C8.33096 11.1784 8.51803 11.017 8.51803 10.818V7.90506C8.51803 7.65632 8.75191 7.45461 9.04031 7.45461H9.08564C9.37404 7.45461 9.60793 7.65632 9.60793 7.90506V10.1333C9.60793 10.3324 9.79499 10.4937 10.0258 10.4937C10.2565 10.4937 10.4436 10.3324 10.4436 10.1333Z" fill="black"/>
<path d="M8.52976 10.8533V7.09353C8.52976 6.44677 7.92173 5.92236 7.17183 5.92236H7.12649C6.37659 5.92236 5.76855 6.44677 5.76855 7.09353V9.97046C5.76855 10.1695 5.95562 10.3308 6.18638 10.3308C6.41715 10.3308 6.60421 10.1695 6.60421 9.97046V7.09353C6.60421 6.8448 6.83809 6.64308 7.12649 6.64308H7.17183C7.46023 6.64308 7.69411 6.8448 7.69411 7.09353V10.8533C7.69411 11.0524 7.88117 11.2137 8.11194 11.2137C8.3427 11.2137 8.52976 11.0524 8.52976 10.8533Z" fill="black"/>
<path d="M6.60301 10.7817V7.90481C6.60301 7.25805 5.99497 6.73364 5.24507 6.73364H5.19974C4.44983 6.73364 3.8418 7.25805 3.8418 7.90481V11.6646C3.8418 11.8636 4.02886 12.025 4.25962 12.025C4.49039 12.025 4.67745 11.8636 4.67745 11.6646V7.90481C4.67745 7.65608 4.91134 7.45436 5.19974 7.45436H5.24507C5.53347 7.45436 5.76735 7.65608 5.76735 7.90481V10.7817C5.76735 10.9808 5.95442 11.1421 6.18518 11.1421C6.41594 11.1421 6.60301 10.9808 6.60301 10.7817ZM8.75341 4.35111C8.75341 3.75409 8.19216 3.27004 7.49993 3.27004C6.8077 3.27004 6.24645 3.75409 6.24645 4.35111C6.24645 4.94814 6.8077 5.43219 7.49993 5.43219C8.19216 5.43219 8.75341 4.94814 8.75341 4.35111ZM9.58906 4.35111C9.58906 5.34617 8.65367 6.15291 7.49993 6.15291C6.34619 6.15291 5.41079 5.34617 5.41079 4.35111C5.41079 3.35606 6.34619 2.54932 7.49993 2.54932C8.65367 2.54932 9.58906 3.35606 9.58906 4.35111Z" fill="black"/>
</svg>
