<svg width="29" height="22" viewBox="0 0 29 22" fill="none" xmlns="http://www.w3.org/2000/svg">
<g filter="url(#filter0_d_469_1175)">
<path d="M10.6818 3.5C10.021 3.5 9.37512 3.70527 8.82571 4.08986C8.2763 4.47444 7.84809 5.02107 7.59522 5.66061C7.34236 6.30015 7.27619 7.00388 7.4051 7.68282C7.53401 8.36175 7.8522 8.98539 8.31944 9.47487C8.78667 9.96436 9.38197 10.2977 10.03 10.4327C10.6781 10.5678 11.3499 10.4985 11.9603 10.2336C12.5708 9.96867 13.0926 9.52007 13.4597 8.9445C13.8268 8.36892 14.0227 7.69223 14.0227 7C14.0227 6.07174 13.6707 5.1815 13.0442 4.52513C12.4177 3.86875 11.5679 3.5 10.6818 3.5ZM10.6818 8.5C10.3986 8.5 10.1218 8.41203 9.88634 8.2472C9.65088 8.08238 9.46736 7.84811 9.35899 7.57403C9.25062 7.29994 9.22226 6.99834 9.27751 6.70736C9.33276 6.41639 9.46913 6.14912 9.66937 5.93934C9.86961 5.72956 10.1247 5.5867 10.4025 5.52882C10.6802 5.47094 10.9681 5.50065 11.2298 5.61418C11.4914 5.72771 11.715 5.91997 11.8723 6.16665C12.0297 6.41332 12.1136 6.70333 12.1136 7C12.1136 7.39782 11.9628 7.77936 11.6943 8.06066C11.4257 8.34196 11.0616 8.5 10.6818 8.5ZM18.3182 0H10.6818C8.90969 2.76642e-08 7.21014 0.737498 5.95706 2.05025C4.70398 3.36301 4 5.14348 4 7C4 8.85652 4.70398 10.637 5.95706 11.9497C7.21014 13.2625 8.90969 14 10.6818 14H18.3182C20.0903 14 21.7899 13.2625 23.0429 11.9497C24.296 10.637 25 8.85652 25 7C25 5.14348 24.296 3.36301 23.0429 2.05025C21.7899 0.737498 20.0903 2.76642e-08 18.3182 0ZM18.3182 12H10.6818C9.41601 12 8.20205 11.4732 7.30699 10.5355C6.41193 9.59785 5.90909 8.32608 5.90909 7C5.90909 5.67392 6.41193 4.40215 7.30699 3.46447C8.20205 2.52678 9.41601 2 10.6818 2H18.3182C19.584 2 20.7979 2.52678 21.693 3.46447C22.5881 4.40215 23.0909 5.67392 23.0909 7C23.0909 8.32608 22.5881 9.59785 21.693 10.5355C20.7979 11.4732 19.584 12 18.3182 12Z" fill="black"/>
</g>
<defs>
<filter id="filter0_d_469_1175" x="0" y="0" width="29" height="22" filterUnits="userSpaceOnUse" color-interpolation-filters="sRGB">
<feFlood flood-opacity="0" result="BackgroundImageFix"/>
<feColorMatrix in="SourceAlpha" type="matrix" values="0 0 0 0 0 0 0 0 0 0 0 0 0 0 0 0 0 0 127 0" result="hardAlpha"/>
<feOffset dy="4"/>
<feGaussianBlur stdDeviation="2"/>
<feComposite in2="hardAlpha" operator="out"/>
<feColorMatrix type="matrix" values="0 0 0 0 0 0 0 0 0 0 0 0 0 0 0 0 0 0 0.25 0"/>
<feBlend mode="normal" in2="BackgroundImageFix" result="effect1_dropShadow_469_1175"/>
<feBlend mode="normal" in="SourceGraphic" in2="effect1_dropShadow_469_1175" result="shape"/>
</filter>
</defs>
</svg>
